<svg width="40" height="40" viewBox="0 0 40 40" fill="none" xmlns="http://www.w3.org/2000/svg">
<g id="noto:3rd-place-medal">
<path id="Vector" d="M21.5875 1.32482C21.25 1.62482 18.625 6.8342 18.625 6.8342L16.6719 14.7123L24.2719 14.0154C24.2719 14.0154 30.5938 2.2592 30.7219 1.98732C30.95 1.49357 31.0719 1.29045 30.2 1.29045C29.3281 1.28732 21.9031 1.04357 21.5875 1.32482Z" fill="#176CC7"/>
<path id="Vector_2" d="M25.5286 13.5284C25.1504 13.3252 14.0129 13.1502 13.7504 13.5284C13.5129 13.8721 13.6473 15.6752 13.7379 15.8909C13.9004 16.2659 17.4973 17.9002 17.4973 17.9002L17.4286 18.644C17.4286 18.644 17.7223 18.719 19.8129 18.719C21.9036 18.719 22.3161 18.6127 22.3161 18.6127L22.3223 17.9409C22.3223 17.9409 25.5598 16.3659 25.7223 16.1471C25.8598 15.9659 25.9067 13.7315 25.5286 13.5284ZM22.2129 16.3784C22.2129 16.3784 22.3161 15.919 22.1004 15.8127C21.8848 15.7034 18.1848 15.7534 17.8911 15.769C17.5973 15.7846 17.5973 16.3096 17.5973 16.3096L15.2661 15.1096L15.2223 14.6627L24.0661 14.7252L24.0348 15.1471L22.2129 16.3784Z" fill="#F79429"/>
<path id="Vector_3" d="M18.5172 16.2158C18.2234 16.2158 18.0547 16.5221 18.0547 17.0502C18.0547 17.5439 18.2234 17.9596 18.5953 17.9283C18.9016 17.9033 19.0078 17.4346 18.9797 17.0189C18.9516 16.5221 18.8891 16.2158 18.5172 16.2158Z" fill="#FDFFFF"/>
<path id="Vector_4" d="M9.15625 28.7782C9.15625 36.2657 15.9406 39.3813 20.4438 39.247C25.6906 39.0907 31.3344 35.1095 30.8688 27.9657C30.4313 21.2626 24.7875 18.1876 19.8562 18.222C14.125 18.2657 9.15625 22.2376 9.15625 28.7782Z" fill="#F79429"/>
<path id="Vector_5" d="M20.2126 38.1154C20.1345 38.1154 20.0532 38.1154 19.9751 38.1123C17.6314 38.0342 15.3157 37.0467 13.622 35.4061C11.8095 33.6498 10.8157 31.2748 10.8282 28.7217C10.8564 22.4873 16.3064 19.5967 20.0032 19.5967H20.0345C25.0439 19.6186 29.1564 23.5123 29.272 28.7904C29.322 31.1404 28.572 33.4779 26.6845 35.3342C24.922 37.0592 22.372 38.1154 20.2126 38.1154ZM19.997 20.6342C16.6814 20.6342 11.7782 23.3467 11.7657 28.7217C11.7564 32.7404 14.8689 36.8717 20.0532 37.0467C22.0282 37.1092 24.2564 36.3779 25.897 34.7654C27.6032 33.0873 28.3689 30.8998 28.3345 28.8061C28.2595 24.2654 24.547 20.6529 20.0407 20.6342C20.0314 20.6279 20.0064 20.6342 19.997 20.6342Z" fill="#D25116"/>
<path id="Vector_6" d="M18.1548 19.2095C17.9392 18.9127 15.7298 18.997 13.3517 21.0439C10.9892 23.0783 10.636 25.3283 11.061 25.447C11.5454 25.5814 12.136 23.4064 14.1767 21.5783C16.0517 19.9064 18.5829 19.8002 18.1548 19.2095ZM27.6517 27.3877C26.8985 27.4939 27.6798 29.7501 25.9329 32.2752C24.4173 34.4658 22.6985 35.2595 22.8985 35.7408C23.1673 36.3845 25.9204 34.7814 27.1954 32.1689C28.3485 29.8033 28.211 27.3064 27.6517 27.3877Z" fill="#FEFFFA"/>
<path id="Vector_7" d="M7.97255 1.16214C7.77567 1.34339 15.3038 14.7496 15.3038 14.7496C15.3038 14.7496 16.5663 14.9121 19.385 14.9371C22.2038 14.9621 23.6007 14.7746 23.6007 14.7746C23.6007 14.7746 17.7475 1.29652 17.3975 1.16214C17.2257 1.09339 14.9069 1.06839 12.6413 1.04339C10.3725 1.01527 8.16005 0.987142 7.97255 1.16214Z" fill="#2E9DF4"/>
<path id="Vector_8" d="M23.4232 26.1592C23.0607 23.0185 19.4045 22.756 17.8888 23.9623C16.4138 25.1373 16.5545 26.7748 17.5888 26.9654C18.4045 27.1154 18.617 26.4685 18.8545 26.1717C19.392 25.506 20.2482 25.4435 20.8076 25.9779C21.442 26.5873 21.0513 28.0435 20.0982 28.1029C19.3888 28.1467 19.0295 28.1092 18.9388 28.231C18.8107 28.4029 18.8295 29.756 18.9607 29.906C19.1107 30.0779 19.7107 29.9717 20.2263 29.9904C20.9357 30.0185 21.6888 31.0685 21.192 31.856C20.6763 32.6717 19.3045 32.306 18.8107 31.8123C18.1576 31.1592 17.5045 31.5342 17.2857 31.7904C16.942 32.1967 16.5763 33.1217 17.8451 34.0217C19.1107 34.9217 22.9513 35.0935 23.7263 32.306C24.4013 29.8717 22.8263 28.8717 22.8263 28.8717C22.8263 28.8717 23.6295 27.9498 23.4232 26.1592Z" fill="#D25116"/>
</g>
</svg>
