<svg width="40" height="40" viewBox="0 0 40 40" fill="none" xmlns="http://www.w3.org/2000/svg">
<g id="noto:2nd-place-medal">
<path id="Vector" d="M21.5875 1.32482C21.25 1.62482 18.625 6.8342 18.625 6.8342L16.6719 14.7123L24.2719 14.0154C24.2719 14.0154 30.5938 2.2592 30.7219 1.98732C30.95 1.49357 31.0719 1.29045 30.2 1.29045C29.3281 1.28732 21.9031 1.04357 21.5875 1.32482Z" fill="#176CC7"/>
<path id="Vector_2" d="M25.5286 13.5284C25.1504 13.3252 14.0129 13.1502 13.7504 13.5284C13.5129 13.8721 13.6473 15.6752 13.7379 15.8909C13.9004 16.2659 17.4973 17.9002 17.4973 17.9002L17.4286 18.644C17.4286 18.644 17.7223 18.719 19.8129 18.719C21.9036 18.719 22.3161 18.6127 22.3161 18.6127L22.3223 17.9409C22.3223 17.9409 25.5598 16.3659 25.7223 16.1471C25.8598 15.9659 25.9067 13.7315 25.5286 13.5284ZM22.2129 16.3784C22.2129 16.3784 22.3161 15.919 22.1004 15.8127C21.8848 15.7034 18.1848 15.7534 17.8911 15.769C17.5973 15.7846 17.5973 16.3096 17.5973 16.3096L15.2223 14.894V14.6627L24.0661 14.7252L24.0817 14.9877L22.2129 16.3784Z" fill="#CECDD2"/>
<path id="Vector_3" d="M18.5172 15.9902C18.2234 15.9902 18.0547 16.2965 18.0547 16.8246C18.0547 17.3184 18.2234 17.734 18.5953 17.7027C18.9016 17.6777 19.0078 17.209 18.9797 16.7934C18.9516 16.2996 18.8891 15.9902 18.5172 15.9902Z" fill="#FDFFFF"/>
<path id="Vector_4" d="M9.05469 28.7157C9.05469 36.2032 15.9453 39.3813 20.4484 39.247C25.6953 39.0907 31.2328 35.1095 30.8734 27.9657C30.5328 21.197 24.7922 18.1876 19.8609 18.222C14.1297 18.2657 9.05469 22.1751 9.05469 28.7157Z" fill="#CECDD2"/>
<path id="Vector_5" d="M20.1657 37.8527C20.0876 37.8527 20.0064 37.8527 19.9282 37.8496C17.5845 37.7715 15.2689 36.784 13.5751 35.1434C11.7626 33.3871 10.7689 31.0121 10.7814 28.459C10.8095 22.2246 16.2595 19.334 19.9564 19.334H19.9876C24.997 19.3559 29.1095 23.2496 29.2251 28.5277C29.2751 30.8777 28.3126 33.3434 26.4251 35.1996C24.6626 36.9277 22.3251 37.8527 20.1657 37.8527ZM19.9501 20.3715C16.6345 20.3715 11.7314 23.084 11.7189 28.459C11.7095 32.4777 14.822 36.609 20.0064 36.784C21.9814 36.8465 24.0157 36.0902 25.6595 34.4746C27.3657 32.7965 28.3251 30.634 28.2907 28.5402C28.2095 23.9996 24.497 20.3871 19.9907 20.3652C19.9845 20.3652 19.9595 20.3715 19.9501 20.3715Z" fill="#9B9B9D"/>
<path id="Vector_6" d="M18.1548 19.2095C17.9392 18.9127 15.7298 18.997 13.3517 21.0439C10.9892 23.0783 10.636 25.3283 11.061 25.447C11.5454 25.5814 12.136 23.4064 14.1767 21.5783C16.0517 19.9064 18.5829 19.8002 18.1548 19.2095ZM27.4642 27.4127C26.711 27.5189 27.4923 29.7752 25.7454 32.3002C24.2298 34.4908 22.511 35.2845 22.711 35.7658C22.9798 36.4095 25.7329 34.8064 27.0079 32.1939C28.161 29.8314 28.0235 27.3345 27.4642 27.4127Z" fill="#FEFFFA"/>
<path id="Vector_7" d="M7.97255 1.16214C7.77567 1.34339 15.3038 14.7496 15.3038 14.7496C15.3038 14.7496 16.5663 14.9121 19.385 14.9371C22.2038 14.9621 23.6007 14.7746 23.6007 14.7746C23.6007 14.7746 17.7475 1.29652 17.3975 1.16214C17.2257 1.09339 14.9069 1.06839 12.6413 1.04339C10.3725 1.01527 8.16005 0.987142 7.97255 1.16214Z" fill="#2E9DF4"/>
<path id="Vector_8" d="M17.7666 26.9846C18.0916 26.9877 18.3822 26.5471 18.6509 26.2784C19.2228 25.7034 19.8228 25.2471 20.5072 25.8659C22.1884 27.394 18.8134 28.944 17.5322 31.0627C16.5759 32.644 16.3822 33.8596 16.6478 34.1846C16.9134 34.5096 23.3791 34.494 23.4666 34.3315C23.5541 34.169 23.6447 32.0034 23.4947 31.9002C23.3447 31.7971 20.1666 31.8565 20.1666 31.8565C20.1666 31.8565 20.4322 31.2377 21.5228 30.294C22.7197 29.2596 23.6791 27.8377 23.4228 26.1565C22.8916 22.6815 19.3916 22.5534 17.8759 23.7627C16.3978 24.9409 16.7166 26.9721 17.7666 26.9846Z" fill="#9B9B9D"/>
</g>
</svg>
