<svg xmlns="http://www.w3.org/2000/svg" width="3" height="14" viewBox="0 0 3 14" fill="none">
    <path fill-rule="evenodd" clip-rule="evenodd" d="M3 1.55556C3 2.41465 2.32841 3.11111 1.5 3.11111C0.671587 3.11111 0 2.41465 0 1.55556C0 0.696446 0.671587 0 1.5 0C2.32841 0 3 0.696446 3 1.55556ZM1.5 8.55556C2.32841 8.55556 3 7.8591 3 7C3 6.14091 2.32841 5.44445 1.5 5.44445C0.671587 5.44445 0 6.14091 0 7C0 7.8591 0.671587 8.55556 1.5 8.55556ZM1.5 14C2.32841 14 3 13.3035 3 12.4444C3 11.5854 2.32841 10.8889 1.5 10.8889C0.671587 10.8889 0 11.5854 0 12.4444C0 13.3035 0.671587 14 1.5 14Z" fill="#6E6E6E"/>
</svg>
